<svg xmlns="http://www.w3.org/2000/svg" fill="none" viewBox="0 0 100 100" height="100" width="100">
<rect fill="#082B76" height="100" width="100"></rect>
<rect fill="url(#paint0_linear_52_88)" height="100" width="100"></rect>
<rect fill="url(#paint1_linear_52_88)" height="100" width="100"></rect>
<path fill="white" d="M49.8037 72.1012C44.589 76.5882 38.6042 78.6235 35.7857 78.6235C35.3846 78.6327 34.9844 78.5819 34.5981 78.4729C34.2416 78.3836 33.9167 78.1962 33.6596 77.9315C33.4025 77.6669 33.2234 77.3354 33.1422 76.9741C33.0598 76.5844 33.1342 76.1777 33.349 75.8433C33.5638 75.5089 33.9014 75.2741 34.2878 75.1906C34.4954 75.1459 34.7008 75.0941 34.9037 75.04C35.1361 75.195 35.3822 75.3281 35.6387 75.4377C36.6414 75.8262 37.71 76.0125 38.7839 75.9859C39.9713 75.9744 41.1535 75.8252 42.3071 75.5412C44.9909 74.8589 47.5305 73.6935 49.8037 72.1012ZM40.3028 64.4471L40.5105 64.3788C41.5247 64.0475 42.4936 63.589 43.3944 63.0141L43.434 62.9882C42.3817 61.2447 39.7545 58.0471 33.3242 52.3882C27.9017 47.6118 22.456 43.4706 22.4023 43.4282C22.0615 43.1684 21.794 42.8232 21.6262 42.427C21.4584 42.0307 21.3962 41.5972 21.4457 41.1692C21.4952 40.7413 21.6547 40.3338 21.9085 39.9872C22.1622 39.6405 22.5013 39.3667 22.8923 39.1929C22.8363 39.0918 22.785 38.9906 22.7336 38.8894C22.7196 38.8635 22.708 38.8377 22.694 38.8141L22.568 38.56L22.5423 38.5082C22.4373 38.2894 22.3346 38.0729 22.239 37.8541C20.0574 36.4706 18.5385 34.6353 17.8642 33.04C17.7508 32.7687 17.5606 32.5372 17.3174 32.3744C17.0742 32.2116 16.7888 32.1247 16.4969 32.1247C16.3686 32.1248 16.2408 32.1414 16.1166 32.1741C15.7702 32.267 15.4682 32.4816 15.2649 32.7793C15.0617 33.0771 14.9707 33.4382 15.0083 33.7977C15.0386 34.0824 15.8179 40.7788 19.6748 45.6988L18.8605 46.0047C18.5983 46.1056 18.3696 46.279 18.2006 46.5049C18.0316 46.7309 17.9292 47.0003 17.9051 47.2823C17.881 47.5642 17.9361 47.8473 18.0643 48.0991C18.1924 48.3509 18.3883 48.5612 18.6295 48.7059C18.7998 48.8118 34.0451 58.0635 40.3028 64.4471Z" opacity="0.25"></path>
<path fill="white" d="M48.1938 72C46.3067 73.183 44.2482 74.0618 42.0924 74.6047C41.0091 74.8715 39.899 75.012 38.7839 75.0235C37.8384 75.0504 36.8967 74.8906 36.012 74.5529C34.7077 73.9929 34.4278 73.0871 34.3788 72.5976C34.3389 72.2026 34.4556 71.8076 34.7035 71.499C34.9513 71.1905 35.3102 70.9933 35.7017 70.9506L35.9817 70.9176C36.4458 71.3533 36.9614 71.7295 37.517 72.0376C39.053 72.8717 40.775 73.2961 42.5194 73.2706C44.4769 73.2406 46.4077 72.8083 48.1938 72ZM44.407 62.4306C44.9643 62.0134 45.4391 61.4947 45.8069 60.9012C45.8898 60.772 45.9424 60.6256 45.9609 60.4729C45.9609 60.1976 45.6973 57.4941 36.6 47.6047C31.7539 42.3176 26.8938 37.7388 26.6908 37.5482C26.3655 37.2434 26.1218 36.8607 25.9822 36.4356C25.8426 36.0106 25.8116 35.5568 25.8921 35.1165C25.9726 34.6761 26.1619 34.2634 26.4427 33.9164C26.7234 33.5695 27.0864 33.2996 27.4981 33.1318C27.2647 32.5506 27.0664 31.9553 26.8938 31.3812C25.3585 29.9012 24.4229 28.2682 24.0332 26.9953C23.9278 26.6513 23.7037 26.3568 23.4015 26.1652C23.0993 25.9735 22.739 25.8974 22.386 25.9506C22.0336 26.0082 21.713 26.1904 21.4818 26.4646C21.2505 26.7388 21.1235 27.0871 21.1237 27.447C21.1237 27.7365 21.21 34.4753 24.5442 39.7788L23.7019 40C23.4307 40.0716 23.185 40.2186 22.9927 40.4243C22.8004 40.63 22.6693 40.886 22.6143 41.1632C22.5593 41.4404 22.5827 41.7276 22.6818 41.992C22.7808 42.2565 22.9516 42.4875 23.1746 42.6588C23.2283 42.6988 28.7253 46.8941 34.1408 51.6635C40.5805 57.3294 43.2917 60.5976 44.407 62.4306Z" opacity="0.55"></path>
<path fill="white" d="M84.8418 49.3412C84.6827 49.6616 84.4145 49.9135 84.0864 50.0509C83.7582 50.1883 83.3919 50.202 83.0546 50.0894C82.4625 49.8664 81.8418 49.7301 81.2113 49.6847C81.0361 49.6706 80.8608 49.7117 80.7097 49.8024C80.2594 50.0988 79.7367 51.1271 79.0764 52.4329C77.9065 54.8299 76.5513 57.1303 75.0236 59.3129C72.5527 62.8259 69.4612 65.7812 66.4723 68.64C62.6832 72.2635 59.104 75.6871 57.0997 79.9059L57.0554 80H53.8169L53.9079 79.7647C56.0475 74.4612 60.3079 70.3882 64.4284 66.4471C67.3123 63.6871 70.2965 60.8353 72.5947 57.56C74.0378 55.4965 75.3195 53.3228 76.4282 51.0588C77.5645 48.8118 78.3975 47.1647 80.278 46.7718C79.9444 46.2071 79.1721 45.0847 78.2108 44.8894C78.1132 44.8697 78.014 44.8594 77.9145 44.8588C77.3405 44.8588 76.6895 45.1859 75.9779 45.8282C74.0087 47.6071 71.6218 49.4235 68.8452 49.4235C68.616 49.424 68.387 49.4114 68.1593 49.3859C65.8097 49.1294 63.6445 47.5788 61.5399 44.6424C55.9845 36.8965 48.1518 35.2682 41.8568 33.9576H41.8404C40.9795 33.7765 40.1675 33.6094 39.3789 33.4282C35.8984 32.6692 32.7414 30.8293 30.3516 28.1671C30.8183 30.6094 31.6232 32.6612 32.7548 34.2847C32.9007 34.4947 32.991 34.7389 33.0171 34.9939C33.0432 35.249 33.0042 35.5066 32.904 35.7422C32.8038 35.9779 32.6455 36.1838 32.4442 36.3405C32.2429 36.4972 32.0053 36.5995 31.7539 36.6376H31.7235C33.7581 38.6259 36.705 41.5788 39.6355 44.7647C50.0977 56.1412 50.0977 59.4 50.0977 60.4706C50.0977 62.5624 48.5345 64.7694 45.8069 66.5271C44.1511 67.5855 42.3247 68.3443 40.4102 68.7694C41.0853 68.9858 41.7901 69.093 42.4984 69.0871C44.477 69.0871 46.6399 68.3529 48.9194 66.9106L48.9638 66.8847C50.772 65.8212 52.438 65.2824 53.9149 65.2824C54.2988 65.2821 54.6819 65.3208 55.0582 65.3976C56.5514 65.7082 57.2747 66.5506 57.4054 66.7176L57.4287 66.7459L55.0955 68.6094C54.9765 68.5059 54.6499 68.2965 53.9569 68.2965C53.2639 68.2965 52.1533 68.5012 50.4897 69.4729C47.7295 71.2165 45.051 72.0988 42.5287 72.0988C40.9788 72.1234 39.4483 71.7492 38.0816 71.0118C36.5067 70.1271 35.529 68.84 35.529 67.6518C35.529 67.2538 35.6855 66.8721 35.9641 66.5903C36.2427 66.3084 36.6207 66.1495 37.0153 66.1482C39.5641 66.1176 42.0543 65.3739 44.2087 64C45.9772 62.8588 47.1229 61.4776 47.1229 60.4706C47.1229 59.5294 46.1896 56.2988 37.4563 46.8235C32.5565 41.5035 27.6754 36.9012 27.4701 36.7059C27.2653 36.5125 27.1187 36.265 27.0471 35.9915C26.9754 35.718 26.9815 35.4297 27.0648 35.1596C27.1481 34.8895 27.3051 34.6485 27.5179 34.4642C27.7307 34.2799 27.9907 34.1598 28.268 34.1176L29.129 33.9906C26.3571 28.3506 26.9754 21.6471 27.0011 21.3576C27.0368 20.9986 27.1988 20.6644 27.4577 20.4154C27.7166 20.1663 28.0554 20.019 28.4127 20H28.4827C28.8274 20.0016 29.1609 20.1233 29.4267 20.3446C29.6925 20.5659 29.8742 20.8731 29.941 21.2141C30.9816 26.56 36.544 29.6847 40.0275 30.4847C40.7975 30.6612 41.6024 30.8282 42.4541 31.0047C48.8938 32.3459 57.7134 34.1788 63.9454 42.8706C65.5064 45.0471 67.03 46.2306 68.4766 46.4C68.599 46.4142 68.722 46.4212 68.8452 46.4212C70.2452 46.4212 71.8248 45.5482 73.9923 43.5976C75.2709 42.4447 76.5822 41.8612 77.8888 41.8612C78.2024 41.8612 78.5151 41.8936 78.8221 41.9576C79.4917 42.0988 81.79 42.8165 83.2879 46.1106C83.5565 46.6348 83.9336 47.0946 84.3939 47.4588C84.6768 47.6688 84.8769 47.973 84.9589 48.3175C85.0409 48.6619 84.9994 49.0246 84.8418 49.3412Z"></path>
<path fill="white" d="M49.8037 72.1012C44.589 76.5882 38.6042 78.6235 35.7857 78.6235C35.3846 78.6327 34.9844 78.5819 34.5981 78.4729C34.2416 78.3836 33.9167 78.1962 33.6596 77.9315C33.4025 77.6669 33.2234 77.3354 33.1422 76.9741C33.0598 76.5844 33.1342 76.1777 33.349 75.8433C33.5638 75.5089 33.9014 75.2741 34.2878 75.1906C34.4954 75.1459 34.7008 75.0941 34.9037 75.04C35.1361 75.195 35.3822 75.3281 35.6387 75.4377C36.6414 75.8262 37.71 76.0125 38.7839 75.9859C39.9713 75.9744 41.1535 75.8252 42.3071 75.5412C44.9909 74.8589 47.5305 73.6935 49.8037 72.1012ZM40.3028 64.4471L40.5105 64.3788C41.5247 64.0475 42.4936 63.589 43.3944 63.0141L43.434 62.9882C42.3817 61.2447 39.7545 58.0471 33.3242 52.3882C27.9017 47.6118 22.456 43.4706 22.4023 43.4282C22.0615 43.1684 21.794 42.8232 21.6262 42.427C21.4584 42.0307 21.3962 41.5972 21.4457 41.1692C21.4952 40.7413 21.6547 40.3338 21.9085 39.9872C22.1622 39.6405 22.5013 39.3667 22.8923 39.1929C22.8363 39.0918 22.785 38.9906 22.7336 38.8894C22.7196 38.8635 22.708 38.8377 22.694 38.8141L22.568 38.56L22.5423 38.5082C22.4373 38.2894 22.3346 38.0729 22.239 37.8541C20.0574 36.4706 18.5385 34.6353 17.8642 33.04C17.7508 32.7687 17.5606 32.5372 17.3174 32.3744C17.0742 32.2116 16.7888 32.1247 16.4969 32.1247C16.3686 32.1248 16.2408 32.1414 16.1166 32.1741C15.7702 32.267 15.4682 32.4816 15.2649 32.7793C15.0617 33.0771 14.9707 33.4382 15.0083 33.7977C15.0386 34.0824 15.8179 40.7788 19.6748 45.6988L18.8605 46.0047C18.5983 46.1056 18.3696 46.279 18.2006 46.5049C18.0316 46.7309 17.9292 47.0003 17.9051 47.2823C17.881 47.5642 17.9361 47.8473 18.0643 48.0991C18.1924 48.3509 18.3883 48.5612 18.6295 48.7059C18.7998 48.8118 34.0451 58.0635 40.3028 64.4471Z" opacity="0.25"></path>
<path fill="white" d="M48.1938 72C46.3067 73.183 44.2482 74.0618 42.0924 74.6047C41.0091 74.8715 39.899 75.012 38.7839 75.0235C37.8384 75.0504 36.8967 74.8906 36.012 74.5529C34.7077 73.9929 34.4278 73.0871 34.3788 72.5976C34.3389 72.2026 34.4556 71.8076 34.7035 71.499C34.9513 71.1905 35.3102 70.9933 35.7017 70.9506L35.9817 70.9176C36.4458 71.3533 36.9614 71.7295 37.517 72.0376C39.053 72.8717 40.775 73.2961 42.5194 73.2706C44.4769 73.2406 46.4077 72.8083 48.1938 72ZM44.407 62.4306C44.9643 62.0134 45.4391 61.4947 45.8069 60.9012C45.8898 60.772 45.9424 60.6256 45.9609 60.4729C45.9609 60.1976 45.6973 57.4941 36.6 47.6047C31.7539 42.3176 26.8938 37.7388 26.6908 37.5482C26.3655 37.2434 26.1218 36.8607 25.9822 36.4356C25.8426 36.0106 25.8116 35.5568 25.8921 35.1165C25.9726 34.6761 26.1619 34.2634 26.4427 33.9164C26.7234 33.5695 27.0864 33.2996 27.4981 33.1318C27.2647 32.5506 27.0664 31.9553 26.8938 31.3812C25.3585 29.9012 24.4229 28.2682 24.0332 26.9953C23.9278 26.6513 23.7037 26.3568 23.4015 26.1652C23.0993 25.9735 22.739 25.8974 22.386 25.9506C22.0336 26.0082 21.713 26.1904 21.4818 26.4646C21.2505 26.7388 21.1235 27.0871 21.1237 27.447C21.1237 27.7365 21.21 34.4753 24.5442 39.7788L23.7019 40C23.4307 40.0716 23.185 40.2186 22.9927 40.4243C22.8004 40.63 22.6693 40.886 22.6143 41.1632C22.5593 41.4404 22.5827 41.7276 22.6818 41.992C22.7808 42.2565 22.9516 42.4875 23.1746 42.6588C23.2283 42.6988 28.7253 46.8941 34.1408 51.6635C40.5805 57.3294 43.2917 60.5976 44.407 62.4306Z" opacity="0.55"></path>
<path fill="white" d="M84.8418 49.3412C84.6827 49.6616 84.4145 49.9135 84.0864 50.0509C83.7582 50.1883 83.3919 50.202 83.0546 50.0894C82.4625 49.8664 81.8418 49.7301 81.2113 49.6847C81.0361 49.6706 80.8608 49.7117 80.7097 49.8024C80.2594 50.0988 79.7367 51.1271 79.0764 52.4329C77.9065 54.8299 76.5513 57.1303 75.0236 59.3129C72.5527 62.8259 69.4612 65.7812 66.4723 68.64C62.6832 72.2635 59.104 75.6871 57.0997 79.9059L57.0554 80H53.8169L53.9079 79.7647C56.0475 74.4612 60.3079 70.3882 64.4284 66.4471C67.3123 63.6871 70.2965 60.8353 72.5947 57.56C74.0378 55.4965 75.3195 53.3228 76.4282 51.0588C77.5645 48.8118 78.3975 47.1647 80.278 46.7718C79.9444 46.2071 79.1721 45.0847 78.2108 44.8894C78.1132 44.8697 78.014 44.8594 77.9145 44.8588C77.3405 44.8588 76.6895 45.1859 75.9779 45.8282C74.0087 47.6071 71.6218 49.4235 68.8452 49.4235C68.616 49.424 68.387 49.4114 68.1593 49.3859C65.8097 49.1294 63.6445 47.5788 61.5399 44.6424C55.9845 36.8965 48.1518 35.2682 41.8568 33.9576H41.8404C40.9795 33.7765 40.1675 33.6094 39.3789 33.4282C35.8984 32.6692 32.7414 30.8293 30.3516 28.1671C30.8183 30.6094 31.6232 32.6612 32.7548 34.2847C32.9007 34.4947 32.991 34.7389 33.0171 34.9939C33.0432 35.249 33.0042 35.5066 32.904 35.7422C32.8038 35.9779 32.6455 36.1838 32.4442 36.3405C32.2429 36.4972 32.0053 36.5995 31.7539 36.6376H31.7235C33.7581 38.6259 36.705 41.5788 39.6355 44.7647C50.0977 56.1412 50.0977 59.4 50.0977 60.4706C50.0977 62.5624 48.5345 64.7694 45.8069 66.5271C44.1511 67.5855 42.3247 68.3443 40.4102 68.7694C41.0853 68.9858 41.7901 69.093 42.4984 69.0871C44.477 69.0871 46.6399 68.3529 48.9194 66.9106L48.9638 66.8847C50.772 65.8212 52.438 65.2824 53.9149 65.2824C54.2988 65.2821 54.6819 65.3208 55.0582 65.3976C56.5514 65.7082 57.2747 66.5506 57.4054 66.7176L57.4287 66.7459L55.0955 68.6094C54.9765 68.5059 54.6499 68.2965 53.9569 68.2965C53.2639 68.2965 52.1533 68.5012 50.4897 69.4729C47.7295 71.2165 45.051 72.0988 42.5287 72.0988C40.9788 72.1234 39.4483 71.7492 38.0816 71.0118C36.5067 70.1271 35.529 68.84 35.529 67.6518C35.529 67.2538 35.6855 66.8721 35.9641 66.5903C36.2427 66.3084 36.6207 66.1495 37.0153 66.1482C39.5641 66.1176 42.0543 65.3739 44.2087 64C45.9772 62.8588 47.1229 61.4776 47.1229 60.4706C47.1229 59.5294 46.1896 56.2988 37.4563 46.8235C32.5565 41.5035 27.6754 36.9012 27.4701 36.7059C27.2653 36.5125 27.1187 36.265 27.0471 35.9915C26.9754 35.718 26.9815 35.4297 27.0648 35.1596C27.1481 34.8895 27.3051 34.6485 27.5179 34.4642C27.7307 34.2799 27.9907 34.1598 28.268 34.1176L29.129 33.9906C26.3571 28.3506 26.9754 21.6471 27.0011 21.3576C27.0368 20.9986 27.1988 20.6644 27.4577 20.4154C27.7166 20.1663 28.0554 20.019 28.4127 20H28.4827C28.8274 20.0016 29.1609 20.1233 29.4267 20.3446C29.6925 20.5659 29.8742 20.8731 29.941 21.2141C30.9816 26.56 36.544 29.6847 40.0275 30.4847C40.7975 30.6612 41.6024 30.8282 42.4541 31.0047C48.8938 32.3459 57.7134 34.1788 63.9454 42.8706C65.5064 45.0471 67.03 46.2306 68.4766 46.4C68.599 46.4142 68.722 46.4212 68.8452 46.4212C70.2452 46.4212 71.8248 45.5482 73.9923 43.5976C75.2709 42.4447 76.5822 41.8612 77.8888 41.8612C78.2024 41.8612 78.5151 41.8936 78.8221 41.9576C79.4917 42.0988 81.79 42.8165 83.2879 46.1106C83.5565 46.6348 83.9336 47.0946 84.3939 47.4588C84.6768 47.6688 84.8769 47.973 84.9589 48.3175C85.0409 48.6619 84.9994 49.0246 84.8418 49.3412Z"></path>
<defs>
<linearGradient gradientUnits="userSpaceOnUse" y2="36.7188" x2="40.625" y1="128.906" x1="91.4063" id="paint0_linear_52_88">
<stop stop-color="#A284B0"></stop>
<stop stop-opacity="0" stop-color="#9FA8FF" offset="1"></stop>
</linearGradient>
<linearGradient gradientUnits="userSpaceOnUse" y2="34.375" x2="80.4688" y1="56.25" x1="-42.9687" id="paint1_linear_52_88">
<stop stop-color="#79D2E3"></stop>
<stop stop-opacity="0" stop-color="#9FA8FF" offset="1"></stop>
</linearGradient>
</defs>
</svg>
